<svg width="78" height="24" viewBox="0 0 78 24" fill="none" xmlns="http://www.w3.org/2000/svg">
  <title>Vibify</title>
  <rect width="78" height="24" rx="5" fill="url(#grad)" />
  <path d="M20 6C21.1046 6 22 6.89543 22 8V16C22 17.1046 21.1046 18 20 18H8C6.89543 18 6 17.1046 6 16V8C6 6.89543 6.89543 6 8 6H20Z" fill="white"/>
  <path d="M11 9.5C11 10.3284 10.3284 11 9.5 11C8.67157 11 8 10.3284 8 9.5C8 8.67157 8.67157 8 9.5 8C10.3284 8 11 8.67157 11 9.5Z" fill="#1e3a8a"/>
  <path d="M18 14.5C18 15.3284 17.3284 16 16.5 16C15.6716 16 15 15.3284 15 14.5C15 13.6716 15.6716 13 16.5 13C17.3284 13 18 13.6716 18 14.5Z" fill="#1e3a8a"/>
  <defs>
    <linearGradient id="grad" x1="0" y1="0" x2="78" y2="24" gradientUnits="userSpaceOnUse">
      <stop stop-color="#3B82F6"/>
      <stop offset="1" stop-color="#1E40AF"/>
    </linearGradient>
  </defs>
</svg>
